<svg width="14" height="14" viewBox="0 0 14 14" fill="none" xmlns="http://www.w3.org/2000/svg">
<path fill-rule="evenodd" clip-rule="evenodd" d="M9.47123 6.62882L9.1 7.00005L9.47123 7.37128C9.67626 7.16625 9.67626 6.83384 9.47123 6.62882ZM8.35754 7.00005L3.82877 11.5288C3.62374 11.7338 3.62374 12.0663 3.82877 12.2713C4.03379 12.4763 4.36621 12.4763 4.57123 12.2713L9.47123 7.37128C9.47125 7.37126 9.47123 7.37128 9.1 7.00005C9.47123 6.62882 9.47125 6.62884 9.47123 6.62882L4.57123 1.72882C4.3662 1.52379 4.03379 1.52379 3.82877 1.72882C3.62374 1.93384 3.62374 2.26625 3.82877 2.47128L8.35754 7.00005Z" fill="#676879"/>
</svg>
